<svg width="18" height="16" viewBox="0 0 18 16" fill="none" xmlns="http://www.w3.org/2000/svg">
<path fill-rule="evenodd" clip-rule="evenodd" d="M3.63912 0.5C1.99749 0.5 0.666687 1.8308 0.666687 3.47243V12.1667C0.666687 14.0076 2.15907 15.5 4.00002 15.5H14C15.841 15.5 17.3334 14.0076 17.3334 12.1667V6.5C17.3334 4.65955 15.8426 3.16667 14.0012 3.16667H9.33295C9.31876 3.1603 9.30146 3.15222 9.282 3.1423C9.24171 3.12178 9.2025 3.09927 9.17143 3.07964C9.15723 3.07067 9.14709 3.06377 9.14097 3.05943C9.02487 2.95563 8.85542 2.7775 8.62059 2.52691L8.57479 2.47802C8.35708 2.24558 8.10294 1.97424 7.8415 1.71696C7.56419 1.44405 7.25361 1.16171 6.94042 0.942985C6.6578 0.745603 6.23631 0.5 5.76199 0.5H3.63912ZM7.40443 3.66654C7.62522 3.90215 7.85869 4.15095 8.04825 4.31802C8.18297 4.43675 8.37495 4.5507 8.52547 4.62738C8.60924 4.67005 8.70665 4.71477 8.80731 4.75086C8.88797 4.77978 9.05049 4.83333 9.23726 4.83333H14.0012C14.9211 4.83333 15.6667 5.57903 15.6667 6.5V12.1667C15.6667 13.0871 14.9205 13.8333 14 13.8333H4.00002C3.07955 13.8333 2.33335 13.0871 2.33335 12.1667V3.47243C2.33335 2.75128 2.91797 2.16667 3.63912 2.16667H5.73676C5.7375 2.16723 5.74002 2.16825 5.74438 2.17003C5.76796 2.17961 5.8453 2.21105 5.98612 2.3094C6.18578 2.44884 6.41885 2.65529 6.67247 2.90487C6.90871 3.13736 7.14109 3.38542 7.36313 3.62245L7.40443 3.66654Z" fill="black"/>
</svg>
