<svg width="20" height="20" viewBox="0 0 20 20" fill="none" xmlns="http://www.w3.org/2000/svg">
<g id="icon / folder">
<path id="icon" fill-rule="evenodd" clip-rule="evenodd" d="M4.63909 2.5C2.99746 2.5 1.66666 3.8308 1.66666 5.47243V14.1667C1.66666 16.0076 3.15904 17.5 4.99999 17.5H15C16.8409 17.5 18.3333 16.0076 18.3333 14.1667V8.5C18.3333 6.65955 16.8426 5.16667 15.0011 5.16667H10.3329C10.3187 5.1603 10.3014 5.15222 10.282 5.1423C10.2417 5.12178 10.2025 5.09927 10.1714 5.07964C10.1572 5.07067 10.1471 5.06377 10.1409 5.05943C10.0248 4.95563 9.85538 4.7775 9.62055 4.52691L9.57476 4.47802C9.35705 4.24558 9.10291 3.97424 8.84147 3.71696C8.56416 3.44405 8.25358 3.16171 7.94039 2.94299C7.65777 2.7456 7.23628 2.5 6.76196 2.5H4.63909ZM8.4044 5.66654C8.62519 5.90215 8.85866 6.15095 9.04822 6.31802C9.18294 6.43675 9.37492 6.5507 9.52544 6.62738C9.60921 6.67005 9.70662 6.71477 9.80728 6.75086C9.88794 6.77978 10.0505 6.83333 10.2372 6.83333H15.0011C15.9211 6.83333 16.6667 7.57903 16.6667 8.5V14.1667C16.6667 15.0871 15.9205 15.8333 15 15.8333H4.99999C4.07952 15.8333 3.33332 15.0871 3.33332 14.1667V5.47243C3.33332 4.75128 3.91793 4.16667 4.63909 4.16667H6.73673C6.73747 4.16723 6.73999 4.16825 6.74435 4.17003C6.76793 4.17961 6.84527 4.21105 6.98609 4.3094C7.18575 4.44884 7.41882 4.65529 7.67244 4.90487C7.90868 5.13736 8.14106 5.38542 8.3631 5.62245L8.4044 5.66654Z" fill="black"/>
</g>
</svg>
