<svg width="18" height="18" viewBox="0 0 18 18" fill="none" xmlns="http://www.w3.org/2000/svg">
<path d="M9.11678 7.45409C9.352 7.27768 9.40843 6.94825 9.24534 6.70362C9.05142 6.41274 8.63987 6.37199 8.39268 6.61919L7.92261 7.08925C7.59717 7.41469 7.06954 7.41469 6.7441 7.08925C6.41866 6.76382 6.41866 6.23618 6.7441 5.91074L7.21416 5.44068C8.20505 4.44979 9.85477 4.61314 10.6321 5.77912C11.2858 6.75975 11.0596 8.08028 10.1168 8.78742L10.0763 8.81777C9.92337 8.93248 9.83335 9.11252 9.83335 9.30372L9.83335 9.41667C9.83335 9.8769 9.46026 10.25 9.00002 10.25C8.53978 10.25 8.16669 9.8769 8.16669 9.41666L8.16669 9.30371C8.16669 8.58792 8.5037 7.91391 9.07633 7.48443L9.11678 7.45409Z" fill="black"/>
<path d="M8.16669 11.9167C8.16669 12.3769 8.53978 12.75 9.00002 12.75C9.46026 12.75 9.83335 12.3769 9.83335 11.9167C9.83335 11.4564 9.46026 11.0833 9.00002 11.0833C8.53978 11.0833 8.16669 11.4564 8.16669 11.9167Z" fill="black"/>
<path fill-rule="evenodd" clip-rule="evenodd" d="M0.666687 9C0.666687 4.39762 4.39765 0.666664 9.00002 0.666664C13.6024 0.666664 17.3334 4.39762 17.3334 9C17.3334 13.6024 13.6024 17.3333 9.00002 17.3333C4.39765 17.3333 0.666687 13.6024 0.666687 9ZM9.00002 2.33333C5.31812 2.33333 2.33335 5.3181 2.33335 9C2.33335 12.6819 5.31812 15.6667 9.00002 15.6667C12.6819 15.6667 15.6667 12.6819 15.6667 9C15.6667 5.3181 12.6819 2.33333 9.00002 2.33333Z" fill="black"/>
</svg>
