<svg width="18" height="18" viewBox="0 0 18 18" fill="none" xmlns="http://www.w3.org/2000/svg">
<path fill-rule="evenodd" clip-rule="evenodd" d="M14.1666 0.666656C12.3257 0.666656 10.8333 2.15904 10.8333 3.99999C10.8333 4.14234 10.8422 4.28261 10.8596 4.42026C10.7391 4.51703 10.582 4.63955 10.399 4.77417C9.95239 5.1026 9.37818 5.48285 8.81555 5.74423C8.3322 5.96878 7.75168 6.16365 7.27621 6.30507C7.04177 6.37479 6.83944 6.4296 6.69641 6.46681C6.625 6.48538 6.56865 6.49949 6.53079 6.50882L6.48838 6.51914L6.47844 6.52151L6.47644 6.52199C6.45557 6.52688 6.43493 6.53256 6.41483 6.53891C5.82209 5.99714 5.03296 5.66666 4.16665 5.66666C2.3257 5.66666 0.833313 7.15904 0.833313 8.99999C0.833313 10.8409 2.3257 12.3333 4.16665 12.3333C5.03294 12.3333 5.82206 12.0029 6.4148 11.4611C6.44499 11.4706 6.47605 11.4785 6.50788 11.4847L6.50879 11.4849L6.51709 11.4866L6.55521 11.4945C6.58983 11.5018 6.6422 11.5132 6.70929 11.5287C6.84369 11.5598 7.03585 11.6072 7.26172 11.6714C7.71939 11.8014 8.28946 11.9931 8.79397 12.2453C9.30413 12.5004 9.88687 12.8867 10.3587 13.2245C10.5541 13.3644 10.7254 13.4922 10.8579 13.5931C10.8417 13.7265 10.8333 13.8623 10.8333 14C10.8333 15.8409 12.3257 17.3333 14.1666 17.3333C16.0076 17.3333 17.5 15.8409 17.5 14C17.5 12.159 16.0076 10.6667 14.1666 10.6667C13.0782 10.6667 12.1116 11.1884 11.5032 11.9954C11.4475 11.9547 11.3892 11.9125 11.3288 11.8693C10.8354 11.5161 10.1682 11.0691 9.53932 10.7546C8.90481 10.4374 8.22487 10.2124 7.7173 10.0682C7.58606 10.0309 7.46462 9.99849 7.35636 9.97092C7.44975 9.66371 7.49998 9.33772 7.49998 8.99999C7.49998 8.65768 7.44838 8.32741 7.35253 8.01656C7.47059 7.98417 7.60527 7.94602 7.75133 7.90257C8.25728 7.7521 8.92676 7.5303 9.51775 7.25575C10.2246 6.92738 10.9004 6.47429 11.3864 6.11683C11.4308 6.08415 11.4739 6.05211 11.5155 6.02084C12.1246 6.8186 13.0855 7.33332 14.1666 7.33332C16.0076 7.33332 17.5 5.84094 17.5 3.99999C17.5 2.15904 16.0076 0.666656 14.1666 0.666656ZM12.5 3.99999C12.5 3.07952 13.2462 2.33332 14.1666 2.33332C15.0871 2.33332 15.8333 3.07952 15.8333 3.99999C15.8333 4.92046 15.0871 5.66666 14.1666 5.66666C13.2462 5.66666 12.5 4.92046 12.5 3.99999ZM2.49998 8.99999C2.49998 8.07952 3.24617 7.33332 4.16665 7.33332C5.08712 7.33332 5.83331 8.07952 5.83331 8.99999C5.83331 9.92046 5.08712 10.6667 4.16665 10.6667C3.24617 10.6667 2.49998 9.92046 2.49998 8.99999ZM12.5 14C12.5 13.0795 13.2462 12.3333 14.1666 12.3333C15.0871 12.3333 15.8333 13.0795 15.8333 14C15.8333 14.9205 15.0871 15.6667 14.1666 15.6667C13.2462 15.6667 12.5 14.9205 12.5 14Z" fill="black"/>
</svg>
