<svg width="24" height="24" viewBox="0 0 24 24" fill="none" xmlns="http://www.w3.org/2000/svg">
<path fill-rule="evenodd" clip-rule="evenodd" d="M17.8395 6.23051C16.8632 5.2542 15.2803 5.2542 14.304 6.23051C13.3277 7.20682 13.3277 8.78973 14.304 9.76604C15.2803 10.7424 16.8632 10.7424 17.8395 9.76604C18.8158 8.78973 18.8158 7.20682 17.8395 6.23051ZM15.7182 7.64472C15.9135 7.44946 16.2301 7.44946 16.4253 7.64472C16.6206 7.83998 16.6206 8.15657 16.4253 8.35183C16.2301 8.54709 15.9135 8.54709 15.7182 8.35183C15.523 8.15657 15.523 7.83998 15.7182 7.64472Z" fill="#0048AD"/>
<path fill-rule="evenodd" clip-rule="evenodd" d="M21.3748 2.6949C21.2349 2.54946 21.0546 2.45098 20.8603 2.40986C19.9181 2.05619 18.3268 1.79714 15.9264 2.73591C14.2392 3.39574 12.1588 4.64402 9.60704 6.85328C9.30208 6.7621 8.97844 6.72524 8.66208 6.7259C8.06763 6.72714 7.40256 6.85931 6.70792 7.12277C5.3144 7.65132 3.73167 8.73365 2.22292 10.539C1.89091 10.9363 1.91703 11.5213 2.28313 11.8874C3.11192 12.7162 4.05842 12.8407 4.81821 12.774C5.16782 12.7432 5.49305 12.6711 5.72891 12.6188L5.74625 12.615C5.88966 12.5832 5.98692 12.5629 6.05471 12.5505C6.0789 12.5541 6.10333 12.5567 6.12797 12.5585C8.36681 12.7184 9.5425 13.1365 10.2379 13.8319C10.9332 14.5272 11.3514 15.7029 11.5113 17.9418C11.5131 17.9668 11.5158 17.9916 11.5194 18.0162C11.507 18.0839 11.4867 18.181 11.4551 18.3238L11.4512 18.3412C11.3989 18.577 11.3268 18.9022 11.2961 19.2519C11.2293 20.0116 11.3539 20.9581 12.1827 21.7869C12.5488 22.153 13.1338 22.1792 13.531 21.8471C15.3364 20.3384 16.4187 18.7557 16.9473 17.3621C17.2108 16.6675 17.3429 16.0024 17.3442 15.408C17.3448 15.0914 17.3079 14.7676 17.2166 14.4625C19.4258 11.9108 20.674 9.83046 21.3338 8.14334C22.2726 5.74297 22.0136 4.1516 21.6599 3.20948C21.6188 3.01513 21.5203 2.83489 21.3748 2.6949ZM7.12552 9.16631C7.05361 9.23785 6.98138 9.31008 6.90883 9.383L5.71161 10.5802C5.57879 10.6032 5.4554 10.6307 5.35531 10.6531L5.31354 10.6624C5.09915 10.7099 4.91592 10.7495 4.73783 10.7716C5.63327 9.91896 6.49034 9.38087 7.21981 9.07203L7.12552 9.16631ZM8.32974 10.7905L8.30201 10.8184C9.6787 11.089 10.8026 11.5682 11.6521 12.4177C12.5016 13.2672 12.9807 14.391 13.2513 15.7677C16.9993 12.0432 18.7268 9.31835 19.4712 7.41488C20.103 5.79944 20.0286 4.77455 19.8768 4.19296C19.2952 4.0411 18.2703 3.96674 16.6549 4.59852C14.7908 5.32755 12.1389 6.99932 8.53196 10.5883L8.32974 10.7905ZM14.998 16.8503L13.4898 18.3584C13.4669 18.4913 13.4393 18.6147 13.417 18.7148L13.4077 18.7565C13.3602 18.9709 13.3206 19.1541 13.2985 19.3322C14.1511 18.4368 14.6892 17.5797 14.998 16.8503Z" fill="#0048AD"/>
<path fill-rule="evenodd" clip-rule="evenodd" d="M8.8006 13.846C9.0761 13.9283 9.42209 14.0767 9.7077 14.3623C9.99331 14.648 10.1417 14.9939 10.224 15.2694C10.3087 15.553 10.3456 15.8373 10.3617 16.0713C10.3781 16.3092 10.3748 16.5231 10.3679 16.6763C10.3644 16.7538 10.3598 16.818 10.3559 16.8647C10.354 16.8881 10.3522 16.9072 10.3508 16.9216L10.3489 16.9396L10.3482 16.9458L10.348 16.9482L10.3479 16.9492C10.3478 16.9494 10.3478 16.9501 9.35415 16.8372L10.3479 16.9492C10.3127 17.2584 10.1355 17.5346 9.86864 17.6947C9.15779 18.1212 8.25362 18.4149 7.58433 18.5975C7.2387 18.6917 6.93306 18.7623 6.71315 18.8094C6.60292 18.833 6.51352 18.8509 6.45057 18.8631C6.41908 18.8692 6.39416 18.8739 6.3765 18.8771L6.35553 18.8809L6.34929 18.8821L6.34621 18.8826C6.34607 18.8826 6.34595 18.8827 6.17216 17.8979C5.19158 17.7018 5.1916 17.7017 5.19162 17.7016L5.1922 17.6987L5.1935 17.6923L5.19815 17.6695C5.20215 17.6501 5.20794 17.6223 5.21542 17.5871C5.23038 17.5167 5.25217 17.4165 5.28012 17.2941C5.33585 17.05 5.41685 16.7143 5.51771 16.3497C5.618 15.9871 5.74125 15.5837 5.88281 15.2083C6.01836 14.8488 6.19475 14.4487 6.41909 14.1347C6.58375 13.9041 6.83846 13.7543 7.11995 13.7223L7.23282 14.7159C7.11995 13.7223 7.11973 13.7223 7.11995 13.7223L7.12186 13.7221L7.12426 13.7218L7.13048 13.7211L7.14845 13.7193C7.16283 13.7179 7.18198 13.7161 7.20538 13.7141C7.25207 13.7102 7.31629 13.7057 7.39377 13.7022C7.54691 13.6952 7.76084 13.692 7.99876 13.7084C8.2327 13.7245 8.517 13.7613 8.8006 13.846ZM7.83857 15.7022C7.81153 15.7661 7.78332 15.8367 7.7542 15.9139C7.68236 16.1045 7.61356 16.3121 7.54947 16.5232C7.83245 16.4332 8.11307 16.3314 8.36715 16.2198L8.36642 16.2088C8.35637 16.063 8.33594 15.9365 8.3077 15.8419C8.29995 15.816 8.29287 15.7967 8.28721 15.7828C8.27337 15.7772 8.25404 15.7701 8.22812 15.7623C8.13359 15.7341 8.00706 15.7137 7.86129 15.7036L7.83857 15.7022Z" fill="#0048AD"/>
<path d="M6.17216 17.8979L6.34621 18.8826C6.0209 18.94 5.68798 18.8331 5.45707 18.5969C5.22616 18.3607 5.12684 18.0255 5.19162 17.7016L6.17216 17.8979Z" fill="#0048AD"/>
</svg>
