<svg width="16" height="20" viewBox="0 0 16 20" fill="none" xmlns="http://www.w3.org/2000/svg">
<path fill-rule="evenodd" clip-rule="evenodd" d="M4.19048 0.833344C2.18228 0.833344 0.5 2.40869 0.5 4.41773V16.4957C0.5 19.0964 3.82609 20.0813 5.38988 18.1453L7.52061 15.5076C7.75901 15.2124 8.24099 15.2124 8.47939 15.5076L10.6101 18.1453C12.1739 20.0813 15.5 19.0964 15.5 16.4957V4.41773C15.5 2.40869 13.8177 0.833344 11.8095 0.833344H4.19048ZM2.16667 4.41773C2.16667 3.38804 3.04276 2.50001 4.19048 2.50001H11.8095C12.9572 2.50001 13.8333 3.38804 13.8333 4.41773V16.4957C13.8333 17.3876 12.5698 17.919 11.9066 17.0981L9.7759 14.4603C8.87042 13.3393 7.12958 13.3393 6.22409 14.4603L4.09336 17.0981C3.43023 17.919 2.16667 17.3876 2.16667 16.4957V4.41773Z" fill="#4D4D4D"/>
</svg>
