<svg width="18" height="20" viewBox="0 0 18 20" fill="none" xmlns="http://www.w3.org/2000/svg">
<path fill-rule="evenodd" clip-rule="evenodd" d="M8.99948 5.00002C6.23806 5.00002 3.99948 7.2386 3.99948 10C3.99948 12.7614 6.23806 15 8.99948 15C11.7609 15 13.9995 12.7614 13.9995 10C13.9995 7.2386 11.7609 5.00002 8.99948 5.00002ZM5.66615 10C5.66615 8.15907 7.15853 6.66669 8.99948 6.66669C10.8404 6.66669 12.3328 8.15907 12.3328 10C12.3328 11.841 10.8404 13.3334 8.99948 13.3334C7.15853 13.3334 5.66615 11.841 5.66615 10Z" fill="black"/>
<path fill-rule="evenodd" clip-rule="evenodd" d="M11.0843 1.69077C9.92189 0.566231 8.07708 0.566231 6.91464 1.69077C6.61939 1.9764 6.20885 2.10979 5.8021 2.05226C4.20069 1.82575 2.7082 2.9101 2.42876 4.50314C2.35778 4.90776 2.10405 5.25698 1.74117 5.44952C0.312458 6.20756 -0.257621 7.96208 0.452667 9.41512C0.633077 9.78419 0.633077 10.2159 0.452667 10.5849C-0.257622 12.038 0.312458 13.7925 1.74117 14.5505C2.10405 14.7431 2.35778 15.0923 2.42876 15.4969C2.7082 17.0899 4.20069 18.1743 5.8021 17.9478C6.20885 17.8903 6.61939 18.0236 6.91464 18.3093C8.07708 19.4338 9.92189 19.4338 11.0843 18.3093C11.3796 18.0236 11.7901 17.8903 12.1969 17.9478C13.7983 18.1743 15.2908 17.0899 15.5702 15.4969C15.6412 15.0923 15.8949 14.7431 16.2578 14.5505C17.6865 13.7925 18.2566 12.038 17.5463 10.5849C17.3659 10.2159 17.3659 9.78419 17.5463 9.41512C18.2566 7.96208 17.6865 6.20756 16.2578 5.44952C15.8949 5.25698 15.6412 4.90776 15.5702 4.50314C15.2908 2.9101 13.7983 1.82575 12.1969 2.05226C11.7901 2.10979 11.3796 1.9764 11.0843 1.69077ZM8.07347 2.88864C8.58978 2.38916 9.40919 2.38916 9.9255 2.88864C10.5902 3.53171 11.5145 3.83203 12.4303 3.7025C13.1416 3.60189 13.8045 4.08352 13.9286 4.7911C14.0884 5.70206 14.6596 6.48831 15.4766 6.92179C16.1112 7.25848 16.3644 8.03779 16.049 8.68318C15.6428 9.51409 15.6428 10.4859 16.049 11.3169C16.3644 11.9623 16.1112 12.7416 15.4766 13.0783C14.6596 13.5117 14.0884 14.298 13.9286 15.2089C13.8045 15.9165 13.1416 16.3982 12.4303 16.2975C11.5145 16.168 10.5902 16.4683 9.9255 17.1114C9.40919 17.6109 8.58978 17.6109 8.07347 17.1114C7.40874 16.4683 6.48445 16.168 5.56869 16.2975C4.85739 16.3982 4.19448 15.9165 4.07036 15.2089C3.91056 14.298 3.33932 13.5117 2.52232 13.0783C1.88773 12.7416 1.63452 11.9623 1.95001 11.3169C2.35618 10.4859 2.35618 9.51409 1.95001 8.68318C1.63452 8.03779 1.88773 7.25848 2.52232 6.92179C3.33932 6.48831 3.91056 5.70206 4.07036 4.7911C4.19448 4.08352 4.85739 3.60189 5.56869 3.7025C6.48445 3.83203 7.40874 3.53171 8.07347 2.88864Z" fill="black"/>
</svg>
