<svg width="12" height="18" viewBox="0 0 12 18" fill="none" xmlns="http://www.w3.org/2000/svg">
<path d="M3.91665 0.458328C3.57027 0.458328 3.26 0.672602 3.13733 0.996538L2.946 1.50177C2.53585 1.46079 2.15796 1.41988 1.85205 1.38554C1.62337 1.35986 1.43539 1.3379 1.30482 1.32239L1.15419 1.30431L1.10304 1.29806C0.646294 1.24151 0.229529 1.56584 0.172969 2.02258C0.116407 2.47933 0.440823 2.89545 0.897571 2.95201L0.953231 2.95882L1.10821 2.97742C1.24183 2.99329 1.43339 3.01567 1.66608 3.04179C2.13105 3.094 2.76213 3.1614 3.42425 3.22183C4.3174 3.30334 5.29642 3.375 5.99999 3.375C6.70355 3.375 7.68257 3.30334 8.57572 3.22183C9.23784 3.1614 9.86892 3.094 10.3339 3.04179C10.5666 3.01567 10.7581 2.99329 10.8918 2.97742L11.0467 2.95882L11.1023 2.95203C11.559 2.89546 11.8836 2.47933 11.827 2.02258C11.7704 1.56584 11.3543 1.24142 10.8976 1.29798L10.8458 1.30431L10.6952 1.32239C10.5646 1.3379 10.3766 1.35986 10.1479 1.38554C9.84201 1.41988 9.46412 1.46079 9.05397 1.50177L8.86264 0.996538C8.73997 0.672602 8.4297 0.458328 8.08332 0.458328H3.91665Z" fill="black"/>
<path d="M5.16665 8.79166C5.16665 8.33142 4.79356 7.95833 4.33332 7.95833C3.87308 7.95833 3.49999 8.33142 3.49999 8.79166V12.9583C3.49999 13.4186 3.87308 13.7917 4.33332 13.7917C4.79356 13.7917 5.16665 13.4186 5.16665 12.9583V8.79166Z" fill="black"/>
<path d="M7.66665 7.95833C8.12689 7.95833 8.49999 8.33142 8.49999 8.79166V12.9583C8.49999 13.4186 8.12689 13.7917 7.66665 13.7917C7.20641 13.7917 6.83332 13.4186 6.83332 12.9583V8.79166C6.83332 8.33142 7.20641 7.95833 7.66665 7.95833Z" fill="black"/>
<path fill-rule="evenodd" clip-rule="evenodd" d="M11.758 5.70879C11.8335 4.65149 10.922 3.80386 9.88606 3.92358C8.82604 4.04608 7.19027 4.20833 5.99999 4.20833C4.8097 4.20833 3.17393 4.04608 2.11391 3.92358C1.07797 3.80386 0.166421 4.65149 0.241942 5.70879L0.955887 15.704C1.01001 16.4617 1.57437 17.1023 2.34886 17.2188C3.17936 17.3437 4.70327 17.5432 6.00095 17.5417C7.28268 17.5402 8.8128 17.3415 9.64695 17.2178C10.4228 17.1027 10.99 16.4617 11.0442 15.7017L11.758 5.70879ZM10.0774 5.57922C10.0803 5.57889 10.0825 5.57909 10.0825 5.57909L10.0847 5.57959C10.0866 5.58023 10.0895 5.58175 10.0923 5.58447C10.0942 5.58627 10.0957 5.58847 10.0957 5.58847L10.0956 5.59005L9.38259 15.5721C8.55702 15.6941 7.14209 15.8737 5.99902 15.875C4.84356 15.8763 3.43738 15.6965 2.6175 15.5738L1.90437 5.59005L1.90431 5.58847C1.90431 5.58847 1.90573 5.58627 1.90763 5.58447C1.9105 5.58175 1.91341 5.58023 1.91526 5.57959L1.91746 5.57909C1.91746 5.57909 1.91968 5.57889 1.92257 5.57922C2.98447 5.70195 4.70452 5.875 5.99999 5.875C7.29545 5.875 9.0155 5.70195 10.0774 5.57922Z" fill="black"/>
</svg>
